<svg width="24" height="24" viewBox="0 0 24 24" fill="none" xmlns="http://www.w3.org/2000/svg">
<path d="M2 24V22H22V24H2ZM5 17.827V15.327L16.22 4.113C16.326 4.00633 16.442 3.929 16.568 3.881C16.694 3.833 16.82 3.80867 16.946 3.808C17.0847 3.808 17.2147 3.83233 17.336 3.881C17.4573 3.92967 17.5737 4.009 17.685 4.119L18.714 5.154C18.824 5.26067 18.9023 5.37467 18.949 5.496C18.9957 5.61733 19.019 5.74733 19.019 5.886C19.019 6.008 18.9957 6.13233 18.949 6.259C18.9023 6.385 18.8237 6.503 18.713 6.613L7.5 17.827H5ZM16.58 7.319L18.02 5.881L16.946 4.808L15.508 6.246L16.58 7.319Z" fill="black"/>
</svg>
