<svg width="160" height="160" viewBox="0 0 160 160" fill="none" xmlns="http://www.w3.org/2000/svg">
<g clip-path="url(#clip0_64_2)">
<path d="M110 70C110 86.6 96.6 100 80 100C63.4 100 50 86.6 50 70C50 53.4 63.4 40 80 40C96.6 40 110 53.4 110 70Z" fill="black"/>
<path fill-rule="evenodd" clip-rule="evenodd" d="M160 80C160 124.2 124.2 160 80 160C35.8 160 0 124.2 0 80C0 35.8 35.8 0 80 0C124.2 0 160 35.8 160 80ZM40 137.5C41.6 134.84 57.1 110 79.9 110C102.6 110 118.2 134.9 119.8 137.5C129.099 131.07 136.696 122.477 141.94 112.461C147.183 102.445 149.915 91.3054 149.9 80C149.9 41.3 118.6 10 79.9 10C41.2 10 9.9 41.3 9.9 80C9.9 103.8 21.8 124.9 40 137.5Z" fill="black"/>
</g>
<defs>
<clipPath id="clip0_64_2">
<rect width="160" height="160" fill="white"/>
</clipPath>
</defs>
</svg>
