<svg width="3036" height="611" viewBox="0 0 3036 611" fill="none" xmlns="http://www.w3.org/2000/svg">
<path d="M1072 232.8C1075.47 234.533 1077.47 237.267 1078 241C1078.67 244.733 1077.73 248.133 1075.2 251.2C1073.47 253.6 1071.2 254.933 1068.4 255.2C1065.73 255.467 1063 254.933 1060.2 253.6C1057 252.133 1053.6 251 1050 250.2C1046.53 249.4 1042.87 249 1039 249C1031.8 249 1025.33 250.133 1019.6 252.4C1014 254.667 1009.2 257.933 1005.2 262.2C1001.2 266.333 998.133 271.267 996 277C994 282.733 993 289.067 993 296C993 304.133 994.133 311.2 996.4 317.2C998.8 323.2 1002.07 328.2 1006.2 332.2C1010.33 336.2 1015.2 339.2 1020.8 341.2C1026.4 343.067 1032.47 344 1039 344C1042.6 344 1046.2 343.667 1049.8 343C1053.4 342.333 1056.87 341.133 1060.2 339.4C1063 338.067 1065.73 337.6 1068.4 338C1071.2 338.4 1073.53 339.8 1075.4 342.2C1078.07 345.533 1079 349 1078.2 352.6C1077.53 356.067 1075.53 358.6 1072.2 360.2C1068.73 361.933 1065.13 363.4 1061.4 364.6C1057.8 365.667 1054.13 366.467 1050.4 367C1046.67 367.667 1042.87 368 1039 368C1029.4 368 1020.27 366.467 1011.6 363.4C1003.07 360.333 995.4 355.8 988.6 349.8C981.933 343.8 976.667 336.333 972.8 327.4C968.933 318.333 967 307.867 967 296C967 285.733 968.733 276.267 972.2 267.6C975.8 258.933 980.8 251.467 987.2 245.2C993.733 238.8 1001.4 233.867 1010.2 230.4C1019 226.8 1028.6 225 1039 225C1044.87 225 1050.6 225.667 1056.2 227C1061.8 228.333 1067.07 230.267 1072 232.8ZM1192.19 226C1195.39 226 1198.19 227.2 1200.59 229.6C1203.12 231.867 1204.39 234.733 1204.39 238.2V353.8C1204.39 357.267 1203.12 360.2 1200.59 362.6C1198.06 364.867 1195.12 366 1191.79 366C1188.06 366 1185.06 364.867 1182.79 362.6C1180.52 360.2 1179.39 357.267 1179.39 353.8V238.2C1179.39 234.733 1180.59 231.867 1182.99 229.6C1185.39 227.2 1188.46 226 1192.19 226ZM1280.79 226C1284.52 226 1287.52 227.2 1289.79 229.6C1292.06 231.867 1293.19 234.733 1293.19 238.2V353.8C1293.19 357.267 1291.99 360.2 1289.59 362.6C1287.32 364.867 1284.26 366 1280.39 366C1277.19 366 1274.32 364.867 1271.79 362.6C1269.39 360.2 1268.19 357.267 1268.19 353.8V238.2C1268.19 234.733 1269.46 231.867 1271.99 229.6C1274.52 227.2 1277.46 226 1280.79 226ZM1191.59 284.2H1280.79V307.2H1191.59V284.2ZM1415.34 226H1482.34C1485.81 226 1488.67 227.133 1490.94 229.4C1493.34 231.533 1494.54 234.333 1494.54 237.8C1494.54 241.133 1493.34 243.867 1490.94 246C1488.67 248 1485.81 249 1482.34 249H1426.34L1428.14 245.6V284.6L1426.54 283H1473.34C1476.81 283 1479.67 284.133 1481.94 286.4C1484.34 288.533 1485.54 291.333 1485.54 294.8C1485.54 298.133 1484.34 300.867 1481.94 303C1479.67 305 1476.81 306 1473.34 306H1427.14L1428.14 304.4V344.8L1426.54 343H1482.34C1485.81 343 1488.67 344.2 1490.94 346.6C1493.34 348.867 1494.54 351.533 1494.54 354.6C1494.54 357.933 1493.34 360.667 1490.94 362.8C1488.67 364.933 1485.81 366 1482.34 366H1415.34C1411.87 366 1408.94 364.867 1406.54 362.6C1404.27 360.2 1403.14 357.267 1403.14 353.8V238.2C1403.14 234.733 1404.27 231.867 1406.54 229.6C1408.94 227.2 1411.87 226 1415.34 226ZM1695.59 232.8C1699.06 234.533 1701.06 237.267 1701.59 241C1702.26 244.733 1701.33 248.133 1698.79 251.2C1697.06 253.6 1694.79 254.933 1691.99 255.2C1689.33 255.467 1686.59 254.933 1683.79 253.6C1680.59 252.133 1677.19 251 1673.59 250.2C1670.13 249.4 1666.46 249 1662.59 249C1655.39 249 1648.93 250.133 1643.19 252.4C1637.59 254.667 1632.79 257.933 1628.79 262.2C1624.79 266.333 1621.73 271.267 1619.59 277C1617.59 282.733 1616.59 289.067 1616.59 296C1616.59 304.133 1617.73 311.2 1619.99 317.2C1622.39 323.2 1625.66 328.2 1629.79 332.2C1633.93 336.2 1638.79 339.2 1644.39 341.2C1649.99 343.067 1656.06 344 1662.59 344C1666.19 344 1669.79 343.667 1673.39 343C1676.99 342.333 1680.46 341.133 1683.79 339.4C1686.59 338.067 1689.33 337.6 1691.99 338C1694.79 338.4 1697.13 339.8 1698.99 342.2C1701.66 345.533 1702.59 349 1701.79 352.6C1701.13 356.067 1699.13 358.6 1695.79 360.2C1692.33 361.933 1688.73 363.4 1684.99 364.6C1681.39 365.667 1677.73 366.467 1673.99 367C1670.26 367.667 1666.46 368 1662.59 368C1652.99 368 1643.86 366.467 1635.19 363.4C1626.66 360.333 1618.99 355.8 1612.19 349.8C1605.53 343.8 1600.26 336.333 1596.39 327.4C1592.53 318.333 1590.59 307.867 1590.59 296C1590.59 285.733 1592.33 276.267 1595.79 267.6C1599.39 258.933 1604.39 251.467 1610.79 245.2C1617.33 238.8 1624.99 233.867 1633.79 230.4C1642.59 226.8 1652.19 225 1662.59 225C1668.46 225 1674.19 225.667 1679.79 227C1685.39 228.333 1690.66 230.267 1695.59 232.8ZM1899.38 366C1895.65 366 1892.65 364.467 1890.38 361.4L1844.18 300.6L1862.38 282L1910.18 345.2C1912.05 347.733 1912.98 350.467 1912.98 353.4C1912.98 357.133 1911.58 360.2 1908.78 362.6C1905.98 364.867 1902.85 366 1899.38 366ZM1901.78 225C1904.98 225 1907.58 226.333 1909.58 229C1911.72 231.533 1912.78 234.133 1912.78 236.8C1912.78 239.6 1911.58 242.2 1909.18 244.6L1825.38 324.8L1824.38 296.2L1891.98 229.6C1895.05 226.533 1898.32 225 1901.78 225ZM1815.38 366C1811.65 366 1808.65 364.867 1806.38 362.6C1804.12 360.2 1802.98 357.267 1802.98 353.8V238.2C1802.98 234.733 1804.18 231.867 1806.58 229.6C1808.98 227.2 1812.05 226 1815.78 226C1819.52 226 1822.45 227.2 1824.58 229.6C1826.85 231.867 1827.98 234.733 1827.98 238.2V353.8C1827.98 357.267 1826.85 360.2 1824.58 362.6C1822.32 364.867 1819.25 366 1815.38 366ZM2057.09 368C2047.75 368 2039.35 366.867 2031.89 364.6C2024.42 362.2 2017.29 358.067 2010.49 352.2C2008.75 350.733 2007.42 349.067 2006.49 347.2C2005.55 345.333 2005.09 343.467 2005.09 341.6C2005.09 338.533 2006.15 335.867 2008.29 333.6C2010.55 331.2 2013.35 330 2016.69 330C2019.22 330 2021.49 330.8 2023.49 332.4C2028.55 336.533 2033.55 339.667 2038.49 341.8C2043.55 343.933 2049.75 345 2057.09 345C2062.02 345 2066.55 344.267 2070.69 342.8C2074.82 341.2 2078.15 339.133 2080.69 336.6C2083.22 333.933 2084.49 330.933 2084.49 327.6C2084.49 323.6 2083.29 320.2 2080.89 317.4C2078.49 314.6 2074.82 312.267 2069.89 310.4C2064.95 308.4 2058.69 306.867 2051.09 305.8C2043.89 304.733 2037.55 303.133 2032.09 301C2026.62 298.733 2022.02 295.933 2018.29 292.6C2014.69 289.133 2011.95 285.133 2010.09 280.6C2008.22 275.933 2007.29 270.733 2007.29 265C2007.29 256.333 2009.49 248.933 2013.89 242.8C2018.42 236.667 2024.49 232 2032.09 228.8C2039.69 225.6 2048.09 224 2057.29 224C2065.95 224 2073.95 225.333 2081.29 228C2088.75 230.533 2094.82 233.8 2099.49 237.8C2103.35 240.867 2105.29 244.4 2105.29 248.4C2105.29 251.333 2104.15 254 2101.89 256.4C2099.62 258.8 2096.95 260 2093.89 260C2091.89 260 2090.09 259.4 2088.49 258.2C2086.35 256.333 2083.49 254.6 2079.89 253C2076.29 251.267 2072.49 249.867 2068.49 248.8C2064.49 247.6 2060.75 247 2057.29 247C2051.55 247 2046.69 247.733 2042.69 249.2C2038.82 250.667 2035.89 252.667 2033.89 255.2C2031.89 257.733 2030.89 260.667 2030.89 264C2030.89 268 2032.02 271.333 2034.29 274C2036.69 276.533 2040.09 278.6 2044.49 280.2C2048.89 281.667 2054.15 283 2060.29 284.2C2068.29 285.667 2075.29 287.4 2081.29 289.4C2087.42 291.4 2092.49 294 2096.49 297.2C2100.49 300.267 2103.49 304.2 2105.49 309C2107.49 313.667 2108.49 319.4 2108.49 326.2C2108.49 334.867 2106.09 342.333 2101.29 348.6C2096.49 354.867 2090.15 359.667 2082.29 363C2074.55 366.333 2066.15 368 2057.09 368ZM2262.82 257.4L2219.62 359C2218.69 361.533 2217.22 363.533 2215.22 365C2213.36 366.333 2211.29 367 2209.02 367C2205.42 367 2202.76 366 2201.02 364C2199.29 362 2198.42 359.533 2198.42 356.6C2198.42 355.4 2198.62 354.133 2199.02 352.8L2248.82 233.2C2249.89 230.533 2251.49 228.467 2253.62 227C2255.89 225.533 2258.29 224.933 2260.82 225.2C2263.22 225.2 2265.42 225.933 2267.42 227.4C2269.56 228.733 2271.09 230.667 2272.02 233.2L2321.22 350.4C2321.89 352.133 2322.22 353.733 2322.22 355.2C2322.22 358.8 2321.02 361.667 2318.62 363.8C2316.36 365.933 2313.82 367 2311.02 367C2308.62 367 2306.42 366.267 2304.42 364.8C2302.56 363.333 2301.09 361.333 2300.02 358.8L2257.02 258.6L2262.82 257.4ZM2225.82 334.6L2236.82 311.6H2290.82L2294.62 334.6H2225.82ZM2516.6 225.8C2520.07 225.8 2522.87 227 2525 229.4C2527.14 231.667 2528.2 234.533 2528.2 238V310.4C2528.2 321.467 2525.8 331.267 2521 339.8C2516.34 348.333 2509.87 355 2501.6 359.8C2493.34 364.6 2483.74 367 2472.8 367C2461.87 367 2452.2 364.6 2443.8 359.8C2435.54 355 2429 348.333 2424.2 339.8C2419.54 331.267 2417.2 321.467 2417.2 310.4V238C2417.2 234.533 2418.4 231.667 2420.8 229.4C2423.2 227 2426.27 225.8 2430 225.8C2433.07 225.8 2435.8 227 2438.2 229.4C2440.74 231.667 2442 234.533 2442 238V310.4C2442 317.067 2443.4 322.867 2446.2 327.8C2449.14 332.6 2452.94 336.333 2457.6 339C2462.4 341.667 2467.47 343 2472.8 343C2478.54 343 2483.87 341.667 2488.8 339C2493.74 336.333 2497.74 332.6 2500.8 327.8C2503.87 322.867 2505.4 317.067 2505.4 310.4V238C2505.4 234.533 2506.4 231.667 2508.4 229.4C2510.4 227 2513.14 225.8 2516.6 225.8ZM2473 218.4C2470.47 218.4 2468.4 217.733 2466.8 216.4C2465.34 215.067 2464.6 213.333 2464.6 211.2C2464.6 210.267 2464.8 209.4 2465.2 208.6C2465.74 207.667 2466.47 206.733 2467.4 205.8L2484.6 190.6C2486.07 189.4 2487.6 188.4 2489.2 187.6C2490.94 186.667 2492.67 186.2 2494.4 186.2C2496.67 186.2 2499 187.067 2501.4 188.8C2503.8 190.533 2505 192.933 2505 196C2505 198 2504.34 200 2503 202C2501.8 203.867 2500 205.4 2497.6 206.6L2477.6 217.2C2476.8 217.733 2476 218.067 2475.2 218.2C2474.4 218.333 2473.67 218.4 2473 218.4ZM2698.22 226C2707.82 226 2716.35 227.8 2723.82 231.4C2731.29 235 2737.55 240.067 2742.62 246.6C2747.82 253 2751.69 260.467 2754.22 269C2756.89 277.4 2758.22 286.4 2758.22 296C2758.22 308.933 2755.89 320.733 2751.22 331.4C2746.55 341.933 2739.75 350.333 2730.82 356.6C2722.02 362.867 2711.15 366 2698.22 366H2650.42C2646.95 366 2644.02 364.867 2641.62 362.6C2639.35 360.2 2638.22 357.267 2638.22 353.8V238.2C2638.22 234.733 2639.35 231.867 2641.62 229.6C2644.02 227.2 2646.95 226 2650.42 226H2698.22ZM2696.22 343C2704.62 343 2711.49 340.867 2716.82 336.6C2722.15 332.2 2726.02 326.467 2728.42 319.4C2730.95 312.2 2732.22 304.4 2732.22 296C2732.22 289.733 2731.49 283.8 2730.02 278.2C2728.69 272.467 2726.55 267.467 2723.62 263.2C2720.69 258.8 2716.95 255.333 2712.42 252.8C2707.89 250.267 2702.49 249 2696.22 249H2661.22L2663.22 247.2V345.2L2662.02 343H2696.22ZM2873.39 226H2940.39C2943.85 226 2946.72 227.133 2948.99 229.4C2951.39 231.533 2952.59 234.333 2952.59 237.8C2952.59 241.133 2951.39 243.867 2948.99 246C2946.72 248 2943.85 249 2940.39 249H2884.39L2886.19 245.6V284.6L2884.59 283H2931.39C2934.85 283 2937.72 284.133 2939.99 286.4C2942.39 288.533 2943.59 291.333 2943.59 294.8C2943.59 298.133 2942.39 300.867 2939.99 303C2937.72 305 2934.85 306 2931.39 306H2885.19L2886.19 304.4V344.8L2884.59 343H2940.39C2943.85 343 2946.72 344.2 2948.99 346.6C2951.39 348.867 2952.59 351.533 2952.59 354.6C2952.59 357.933 2951.39 360.667 2948.99 362.8C2946.72 364.933 2943.85 366 2940.39 366H2873.39C2869.92 366 2866.99 364.867 2864.59 362.6C2862.32 360.2 2861.19 357.267 2861.19 353.8V238.2C2861.19 234.733 2862.32 231.867 2864.59 229.6C2866.99 227.2 2869.92 226 2873.39 226Z" fill="#1E8E3C"/>
<path d="M116.813 162.5C82.3127 147 -15.1866 234 3.31312 262.5C21.8129 291 246.813 610 309.313 610C371.813 610 788.313 103 788.313 103V200L885.313 1L665.313 82H756.813C756.813 82 407.813 488.5 345.313 490C282.813 491.5 151.313 178 116.813 162.5Z" fill="#68DE88" stroke="#68DE88"/>
<path d="M369.5 432.5C406.76 44.5302 444.791 37.2565 532 283.5L369.5 432.5Z" fill="#1E8E3C" stroke="#1E8E3C"/>
<path d="M557 251C573.968 86.4657 591.286 83.381 631 187.811L557 251Z" fill="#1E8E3C" stroke="#1E8E3C"/>
<circle cx="438.5" cy="57.5" r="39.5" fill="#1E8E3C"/>
<circle cx="593.5" cy="69.5" r="27.5" fill="#1E8E3C"/>
</svg>
